<svg xmlns="http://www.w3.org/2000/svg" xmlns:xlink="http://www.w3.org/1999/xlink" viewBox="0 0 215.66 78.54"><defs><style>.cls-1{fill:url(#linear-gradient);}.cls-2{fill:url(#linear-gradient-2);}.cls-3{fill:url(#linear-gradient-3);}.cls-4{fill:url(#linear-gradient-4);}.cls-5{fill:url(#linear-gradient-5);}.cls-6{fill:url(#linear-gradient-6);}.cls-7{fill:url(#linear-gradient-7);}.cls-8{fill:url(#linear-gradient-8);}.cls-9{font-size:8.81px;letter-spacing:0.15em;}.cls-10,.cls-9{fill:#595959;font-family:AvianRegular, Avian;}.cls-10{font-size:22.45px;}.cls-11{font-family:Avian-Bold, Avian;font-weight:700;}.cls-12{fill:none;stroke:#595959;stroke-miterlimit:10;}</style><linearGradient id="linear-gradient" x1="59.51" y1="52.39" x2="30.34" y2="23.21" gradientUnits="userSpaceOnUse"><stop offset="0" stop-color="#5447aa"/><stop offset="0.99" stop-color="#ef3037"/></linearGradient><linearGradient id="linear-gradient-2" x1="97.48" y1="-295.21" x2="127.7" y2="-293.49" gradientTransform="matrix(1, 0, 0, -1, 0, -246.65)" xlink:href="#linear-gradient"/><linearGradient id="linear-gradient-3" x1="96.57" y1="-252.14" x2="96.57" y2="-271.99" gradientTransform="matrix(1, 0, 0, -1, 0, -246.65)" gradientUnits="userSpaceOnUse"><stop offset="0" stop-color="#ffc708"/><stop offset="1" stop-color="#f02c31"/></linearGradient><linearGradient id="linear-gradient-4" x1="2.24" y1="14.45" x2="5.87" y2="53.54" xlink:href="#linear-gradient"/><linearGradient id="linear-gradient-5" x1="117.49" y1="-272.61" x2="96.13" y2="-292.24" gradientTransform="matrix(1, 0, 0, -1, 0, -246.65)" gradientUnits="userSpaceOnUse"><stop offset="0" stop-color="#ff7000"/><stop offset="1" stop-color="#c83654"/></linearGradient><linearGradient id="linear-gradient-6" x1="29.61" y1="55.18" x2="9.05" y2="19.41" gradientUnits="userSpaceOnUse"><stop offset="0.09" stop-color="#f05731"/><stop offset="0.98" stop-color="#ffc708"/></linearGradient><linearGradient id="linear-gradient-7" x1="69.19" y1="55.17" x2="80.92" y2="28.29" xlink:href="#linear-gradient"/><linearGradient id="linear-gradient-8" x1="53.83" y1="18.32" x2="70.49" y2="52.86" gradientUnits="userSpaceOnUse"><stop offset="0" stop-color="#ffc708"/><stop offset="1" stop-color="#f05731"/></linearGradient></defs><g id="Layer_2" data-name="Layer 2"><g id="Layer_1-2" data-name="Layer 1"><path class="cls-1" d="M50.76,29.32V53.09c0,3.67-4.27,3.78-4.42,3.78a3.53,3.53,0,0,1-3.63-3.78V32.51a10.06,10.06,0,0,0-5.84-9.22,7.5,7.5,0,0,0-7.43,1.13L28,25.49c-.82.2,0-1.39-.77-1.06-2.09,1-2.49,2-3.68,3.82a14.23,14.23,0,0,0-1.83,3.93,7.16,7.16,0,0,0-.23,1V30.51a.24.24,0,0,1,0-.08c0-.23,0-.46,0-.69h0A14.24,14.24,0,0,1,32.42,15.91a16.51,16.51,0,0,1,11.93,2.44c2.57,1.9,5.28,4.68,6.1,8v0A11.93,11.93,0,0,1,50.76,29.32Z"/><path class="cls-2" d="M116,55.6a16,16,0,0,0,7.88-6.24,3.88,3.88,0,0,0,.19-4.07h0c-1.31-2.36-4.64-1.79-6.34.31a9.2,9.2,0,0,1-7.44,3.66c-5,0-9.68-2.6-9.68-9.21l-.1,2.83C99.61,51,105.78,57.83,116,55.6Z"/><path class="cls-3" d="M92.54,27.71c0-6,2.34-9.62,8-9.62V7.86c0-3-.54-5.19-4.81-5-2.51.11-3.24,2-3.24,5V27.71Z"/><path class="cls-4" d="M8.33,20.06V53c0,3.77-3.58,3.9-4.45,3.9-1.83,0-3.55-1.09-3.55-3V30.51a.24.24,0,0,1,0-.08c0-.23,0-.46,0-.69h0c0-4.86,3.33-9.36,7.38-12A4.2,4.2,0,0,1,8.33,20.06Z"/><path class="cls-5" d="M109.59,56.63a19.82,19.82,0,0,0,6.61-1.11c-10.12,1.71-15.5-5.26-15.61-13V23.31H113.9c2.71,0,4.51-1.6,4.51-3.91s-1.8-3.91-4.51-3.91H102.17c-5.72,0-9.63,3.61-9.63,9.63V39.79C92.54,50.82,98.86,56.63,109.59,56.63Z"/><path class="cls-6" d="M29.56,29.32V53.09c0,3.67-4.27,3.78-4.42,3.78a3.53,3.53,0,0,1-3.63-3.78V32.51A9.55,9.55,0,0,0,10,23.1l-.13,0a13.63,13.63,0,0,0-2.33.81,12.81,12.81,0,0,0-7,8.29,8,8,0,0,0-.22,1V30.51a.24.24,0,0,1,0-.08c0-.23,0-.46,0-.69h0A14.24,14.24,0,0,1,11.22,15.91a16.51,16.51,0,0,1,11.93,2.44c2.57,1.9,5.28,4.68,6.1,8v0A11.93,11.93,0,0,1,29.56,29.32Z"/><path class="cls-7" d="M87.52,20.05,75.93,52.2s-3.63.29-5.84-6.42a1.83,1.83,0,0,1-.08-.25h0l9.85-27.24A4,4,0,0,1,85,15.68C86.9,16.37,88.24,18.14,87.52,20.05Z"/><path class="cls-8" d="M76.15,51.57a2,2,0,0,1-.22.63,10,10,0,0,1-3.14,3.25,5.25,5.25,0,0,1-6.42,0l0,0a6.78,6.78,0,0,1-2.55-3.69C62,45.63,51.91,20.49,51.91,20.49a4,4,0,0,1,2.67-5,3.83,3.83,0,0,1,4.92,2.87l10,25.35,0,.1A17.37,17.37,0,0,0,70,45.51h0a1.83,1.83,0,0,0,.08.25C72.3,52.49,76.15,51.57,76.15,51.57Z"/><text class="cls-9" transform="translate(0 72.67)">Your Global Workforce</text><text class="cls-10" transform="translate(146.32 19.53)">My<tspan class="cls-11"><tspan x="0" y="26.94">Virtual</tspan></tspan><tspan x="0" y="53.87">Teams</tspan></text><line class="cls-12" x1="135.14" y1="2.91" x2="135.14" y2="72.9"/></g></g></svg>